<svg width="64" height="64" viewBox="0 0 64 64" fill="none" xmlns="http://www.w3.org/2000/svg">
<path fill-rule="evenodd" clip-rule="evenodd" d="M25.4908 9.85887C28.6812 5.3921 35.3198 5.3921 38.5105 9.85887L39.0185 10.57C39.5798 11.3561 40.5228 11.7771 41.4828 11.6704L43.7468 11.4188C48.8422 10.8527 53.1476 15.158 52.5814 20.2533L52.33 22.5174C52.2233 23.4775 52.6441 24.4203 53.4302 24.9818L54.1414 25.4898C58.6081 28.6802 58.6081 35.3189 54.1414 38.5095L53.4302 39.0175C52.6441 39.5789 52.2233 40.5218 52.33 41.4818L52.5814 43.7458C53.1476 48.8413 48.8422 53.1466 43.7468 52.5805L41.4828 52.329C40.5228 52.2223 39.5798 52.6431 39.0185 53.4293L38.5105 54.1405C35.3198 58.6071 28.6814 58.6071 25.4908 54.1405L24.9828 53.4293C24.4213 52.6431 23.4785 52.2223 22.5184 52.329L20.2543 52.5805C15.159 53.1466 10.8537 48.8413 11.4198 43.7458L11.6714 41.4818C11.778 40.5218 11.3571 39.5789 10.571 39.0175L9.85985 38.5095C5.39307 35.3189 5.39307 28.6805 9.85985 25.4898L10.571 24.9818C11.3571 24.4203 11.778 23.4775 11.6714 22.5174L11.4198 20.2533C10.8537 15.158 15.159 10.8527 20.2543 11.4188L22.5184 11.6704C23.4785 11.7771 24.4213 11.3561 24.9828 10.57L25.4908 9.85887ZM41.8862 24.7807C42.9276 25.8221 42.9276 27.5106 41.8862 28.5519L31.7025 38.7357C30.3945 40.0439 28.2734 40.0439 26.9654 38.7357L22.115 33.8853C21.0736 32.8439 21.0736 31.1554 22.115 30.1141C23.1564 29.0727 24.8449 29.0727 25.8863 30.1141L29.334 33.5618L38.115 24.7807C39.1564 23.7393 40.8449 23.7393 41.8862 24.7807Z" fill="#F51B55"/>
</svg>
