<svg width="64" height="64" viewBox="0 0 64 64" fill="none" xmlns="http://www.w3.org/2000/svg">
<path fill-rule="evenodd" clip-rule="evenodd" d="M5.33398 31.9997C5.33398 17.2721 17.2731 5.33301 32.0006 5.33301C46.7281 5.33301 58.6673 17.2721 58.6673 31.9997C58.6673 46.7271 46.7281 58.6663 32.0006 58.6663C17.2731 58.6663 5.33398 46.7271 5.33398 31.9997ZM42.2196 38.8122C41.4025 40.0375 39.7468 40.3687 38.5214 39.5519L31.5876 34.9293C30.1796 33.9906 29.334 32.4106 29.334 30.7186V30.6663V18.6663C29.334 17.1936 30.5278 15.9997 32.0006 15.9997C33.4734 15.9997 34.6673 17.1936 34.6673 18.6663V30.5725L41.4798 35.1141C42.7052 35.9311 43.0364 37.5869 42.2196 38.8122Z" fill="#F51B55"/>
</svg>
