<svg width="64" height="64" viewBox="0 0 64 64" fill="none" xmlns="http://www.w3.org/2000/svg">
<path fill-rule="evenodd" clip-rule="evenodd" d="M34.6673 18.6663C34.6673 17.1936 33.4734 15.9997 32.0006 15.9997C30.5278 15.9997 29.334 17.1936 29.334 18.6663V18.9367C25.0797 19.8377 22.334 22.8953 22.334 26.6663C22.334 30.4373 25.0797 33.4949 29.334 34.3959V39.437C28.1166 38.9197 27.2513 38.1434 27.2046 38.0991C26.1621 37.0727 24.4849 37.0775 23.4485 38.1141C22.407 39.1554 22.407 40.8439 23.4484 41.8853C24.1478 42.5837 24.99 43.1602 25.8443 43.6482C26.7513 44.1666 27.9326 44.7023 29.334 45.0266V45.333C29.334 46.8058 30.5278 47.9997 32.0006 47.9997C33.4734 47.9997 34.6673 46.8058 34.6673 45.333V45.0626C38.9217 44.1615 41.6673 41.1039 41.6673 37.333C41.6673 33.5621 38.9217 30.5045 34.6673 29.6034V24.4395C35.9278 24.9037 36.4873 25.5494 36.5566 25.6295C37.4409 26.7735 39.0839 27.0079 40.2524 26.1442C41.4366 25.2688 41.6873 23.5991 40.8118 22.4147C40.8118 22.4147 40.8132 22.4166 40.81 22.4123C40.6396 22.1827 40.4609 21.977 40.1412 21.6674C39.7628 21.3009 39.2193 20.844 38.4959 20.3974C37.5247 19.7976 36.2537 19.2323 34.6673 18.9194V18.6663ZM5.33398 31.9997C5.33398 17.2721 17.2731 5.33301 32.0006 5.33301C46.7281 5.33301 58.6673 17.2721 58.6673 31.9997C58.6673 46.7271 46.7281 58.6663 32.0006 58.6663C17.2731 58.6663 5.33398 46.7271 5.33398 31.9997Z" fill="#F51B55"/>
<path fill-rule="evenodd" clip-rule="evenodd" d="M34.9999 35.3222C34.8479 35.2339 34.666 35.3502 34.666 35.5262V39.1414C34.666 39.3174 34.8479 39.4337 34.9999 39.3451C36.0527 38.7331 36.3324 37.8403 36.3324 37.3337C36.3324 36.8273 36.0527 35.9342 34.9999 35.3222Z" fill="#F51B55"/>
<path fill-rule="evenodd" clip-rule="evenodd" d="M29.3327 24.9058C29.3327 24.7079 29.1281 24.5772 28.9585 24.6789C27.9388 25.29 27.666 26.1666 27.666 26.6666C27.666 27.1666 27.9388 28.0431 28.9585 28.6543C29.1281 28.7559 29.3327 28.6253 29.3327 28.4274V24.9058Z" fill="#F51B55"/>
</svg>
