<svg width="39" height="39" viewBox="0 0 39 39" fill="none" xmlns="http://www.w3.org/2000/svg">
<path d="M22.75 15.1125V19.825H26.975C27.3 19.825 27.4625 20.15 27.4625 20.475L26.8125 23.5625C26.8125 23.725 26.4875 23.8875 26.325 23.8875H22.75V35.75H17.875V24.05H15.1125C14.7875 24.05 14.625 23.8875 14.625 23.5625V20.475C14.625 20.15 14.7875 19.9875 15.1125 19.9875H17.875V14.625C17.875 11.8625 19.9875 9.75 22.75 9.75H27.1375C27.4625 9.75 27.625 9.9125 27.625 10.2375V14.1375C27.625 14.4625 27.4625 14.625 27.1375 14.625H23.2375C22.9125 14.625 22.75 14.7875 22.75 15.1125V15.1125Z" stroke="black" stroke-width="1.5" stroke-miterlimit="10" stroke-linecap="round"/>
<path d="M24.375 35.75H14.625C6.5 35.75 3.25 32.5 3.25 24.375V14.625C3.25 6.5 6.5 3.25 14.625 3.25H24.375C32.5 3.25 35.75 6.5 35.75 14.625V24.375C35.75 32.5 32.5 35.75 24.375 35.75Z" stroke="black" stroke-width="1.5" stroke-linecap="round" stroke-linejoin="round"/>
</svg>
