<svg width="39" height="39" viewBox="0 0 39 39" fill="none" xmlns="http://www.w3.org/2000/svg">
<path d="M13.8125 30.875H13C6.5 30.875 3.25 29.25 3.25 21.125V13C3.25 6.5 6.5 3.25 13 3.25H26C32.5 3.25 35.75 6.5 35.75 13V21.125C35.75 27.625 32.5 30.875 26 30.875H25.1875C24.6837 30.875 24.1962 31.1187 23.8875 31.525L21.45 34.775C20.3775 36.205 18.6225 36.205 17.55 34.775L15.1125 31.525C14.8525 31.1675 14.2513 30.875 13.8125 30.875V30.875Z" stroke="black" stroke-width="1.5" stroke-miterlimit="10" stroke-linecap="round" stroke-linejoin="round"/>
<path d="M25.9938 17.875H26.0101M19.4922 17.875H19.5084M12.9922 17.875H13.0052" stroke="black" stroke-width="2" stroke-linecap="round" stroke-linejoin="round"/>
</svg>
