<svg width="45" height="49" viewBox="0 0 45 49" fill="none" xmlns="http://www.w3.org/2000/svg">
<path d="M18.8155 26.6394C17.6763 26.6394 16.5949 26.8545 15.571 27.2989C14.5472 27.7433 13.6244 28.3311 12.8313 29.0766C12.0382 29.8221 11.4037 30.6823 10.9423 31.6428C10.4808 32.6033 10.2501 33.6212 10.2501 34.7107C10.2501 36.2161 10.6395 37.5207 11.4181 38.6532C12.1968 39.7858 13.2494 40.6603 14.5617 41.3198C15.8883 41.9649 17.3447 42.2946 18.9309 42.2946C20.445 42.2946 21.7427 42.0653 22.8387 41.6065C23.9346 41.1477 24.8574 40.5456 25.6073 39.7858C26.3571 39.0403 26.9483 38.1945 27.3665 37.2769L32.0241 41.2768C30.9282 43.3699 29.1978 45.1332 26.833 46.5955C24.4681 48.0578 21.4976 48.789 17.9215 48.789C15.0663 48.789 12.4852 48.2012 10.178 47.0113C7.87084 45.8214 6.03951 44.2014 4.69847 42.1226C3.35742 40.0582 2.67969 37.707 2.67969 35.0835C2.67969 33.0764 3.12671 31.2414 4.03516 29.5497C4.94361 27.858 6.15488 26.3957 7.68338 25.1341C9.21188 23.8869 10.9278 22.8833 12.8169 22.1235C14.7059 21.378 16.6525 20.9766 18.6713 20.9336L18.8155 26.6394ZM33.7401 20.9336H40.4741L32.9181 40.0295C31.0003 39.2697 29.068 38.4955 27.1502 37.7357C29.342 32.1302 31.5482 26.5391 33.7401 20.9336Z" fill="#F52059"/>
<path d="M42.8102 48.0999C42.392 48.0999 41.7143 48.0999 40.7914 48.0999C39.8686 48.0999 38.9168 48.0999 37.9219 48.0999C36.9413 48.0999 35.7445 48.0999 34.3602 48.0999L13.0909 19.9292C12.716 19.3414 12.2401 18.5959 11.6777 17.6784C11.1154 16.7609 10.6251 15.7287 10.2357 14.5818C9.83199 13.4349 9.64453 12.2593 9.64453 11.0407C9.64453 9.29168 10.0915 7.61434 10.9712 6.03735C11.8508 4.44603 13.1486 3.14143 14.8357 2.09488C16.5372 1.04833 18.6425 0.532227 21.166 0.532227C23.8481 0.532227 26.2274 1.06266 28.3182 2.12355C30.3947 3.18443 32.0818 4.4747 33.3796 5.96567L29.7314 10.7827C28.4336 9.5354 27.1647 8.53186 25.9534 7.77204C24.7421 7.02655 23.5453 6.63947 22.3628 6.63947C20.6901 6.63947 19.4068 7.14124 18.5272 8.14478C17.6476 9.14832 17.2005 10.3096 17.2005 11.6428C17.2005 12.3166 17.3592 13.0191 17.6764 13.7646C17.9936 14.5101 18.3109 15.1695 18.6569 15.743C18.9886 16.3021 19.2049 16.6749 19.2914 16.8326L42.8102 48.0999Z" fill="#F51B55"/>
<path d="M14.3455 21.6055C13.3938 21.8922 12.269 22.3079 11.0722 22.9244C10.1349 23.3975 9.3418 23.9136 8.66406 24.3867C9.93301 26.064 11.202 27.7557 12.4709 29.4331C12.9468 28.9313 13.6678 28.2718 14.6916 27.7127C16.0759 26.9529 17.3737 26.7235 18.1523 26.6518C16.8978 24.9745 15.6289 23.2828 14.3455 21.6055Z" fill="#BD1441"/>
<path d="M26.8928 38.1943C26.5323 38.7821 25.8978 39.6423 24.8885 40.4165C23.7493 41.3053 22.6101 41.7211 21.918 41.9074C23.2446 43.6421 24.5712 45.3768 25.9123 47.1115C26.7486 46.6671 27.7436 46.0506 28.7674 45.2048C29.5749 44.531 30.2238 43.8715 30.7429 43.2694C29.4451 41.5777 28.1618 39.886 26.8928 38.1943Z" fill="#AD133C"/>
</svg>
