<svg id="Слой_1" data-name="Слой 1" xmlns="http://www.w3.org/2000/svg" viewBox="0 0 643.65 489.86">
  <defs>
    <style>
      .cls-1 {
        fill: #fc7e7e;
      }

      .cls-2 {
        fill: #a4fe7e;
      }

      .cls-3 {
        fill: #c45bd6;
      }

      .cls-4 {
        fill: #d88d59;
      }

      .cls-5 {
        fill: #175cc1;
      }
    </style>
  </defs>
  <path class="cls-1 reg" d="M-62.48,318.37c1.83-2.83,1.6-6.31,2.88-9.33.46-1.09.62-2.43,2.09-2.31s.94,1.51,1.17,2.39c.33,1.27.62,2.56.83,3.85s-.43,3.32,1.91,3.31c1.89,0,4.09-.6,4-2.84-.55-9.39,5.63-13,12.81-16.6,5.78-2.93,8.47-9.5,13-14.06,3.68-3.7,7.37-5.73,12.56-5.48,3.43.16,6.94.83,10.34-.64,1.05-.46,2.53-.46,3-1.52,2.5-5.4,7.55-6.42,12.55-7.66,1.94-.48,3.92-1.13,4.69-3.25,1.37-3.79,3.82-4.46,7.44-3.17,5.24,1.85,9.88-1.66,14-3.4,6.57-2.81,13.63-6,18.15-12.32.76-1.07,1.77-2.17,2-3.38a29.16,29.16,0,0,1,10.38-18c2.14-1.75,1.6-4.23.36-6.32-4.16-7-2.46-12.94,3.23-18.16,2.63-2.41,3.86-7.51,7.47-7.06,1.77.23,2.8,5.76,4.29,8.82,1,2.07,1.76,4.33,3.62,5.89.76.63,1.5,1.6,2.56,1.12a2.79,2.79,0,0,0,1.37-2.51c.17-2.14-.89-4.58,2.85-5.36,1.56-.32.14-2.8-1.1-3.44-4.89-2.55-1-7-2.34-10.29-.37-.87,1.12-1,1.87-1a30,30,0,0,1,4.91.51c5.05,1.06,8.35-2.59,6.85-7.66-2-6.56,2.36-11.41,9.24-10.21.72-2.24-2.14-5.77,2.41-6.76,1.31-.29.22-1.35-.27-1.79-2.91-2.64-1-4.77,1.12-6,2.89-1.78,5.63-4.84,9.75-2.93,2.48,1.15,2.32-1.43,2.64-2.37,1.71-5,5.18-6.75,10.16-6.09,1.7.23,2.07-.27,2.14-2.11.15-3.86,2.77-5.2,6.41-3.61,6.07,2.66,12,5.4,16.48,10.69,3.58,4.26,9,4.72,14,5.32,3.49.41,4.79,1.6,4.83,5.25.18,15.59.33,31.2,1.11,46.77.89,17.88,1.33,35.76,2,53.64.68,17.22,1.29,34.44,2,51.65.73,18.38,1.3,36.76,2,55.14.7,17.38,1,34.79,2.12,52.13.72,11.07-.54,22.22,1.61,33.21.89,4.58-.5,7.73-5.31,9.62a85.69,85.69,0,0,0-13.59,7.17,18.16,18.16,0,0,1-13.3,2.78c-6.56-1.3-11.89,1-17.1,4.39-6,4-11.57,8.81-19.09,10.07-2.35.39-3.06,2.64-3.45,4.93-1.74,10-6.08,13.69-16.08,13.61a20.31,20.31,0,0,0-7.81,1.1c-5.71,2.3-11.2-1.84-16.92-.12-7.65,2.31-16.16,1.15-23.29,5.7-1.12.72-2.68,1.2-2.58,2.73.3,4.31-2.76,5.08-5.85,6-1.87.58-3.94,1-4.93,3-4.12,8.46-12.37,9.87-20.26,11.38-4.18.79-8.64.38-12.94.07a13.17,13.17,0,0,1-9.16-4.41C2.24,525-1.56,523.07-6.4,523.87c-2.77.45-3.49-1.79-3.91-3.6-.59-2.55-.39-5.24-1.16-7.82-.43-1.46.28-2.83,2.13-2.26s4.09,1.74,5.06.2c1.43-2.27,2.79-5.38,2.41-7.87-1.45-9.55-.75-19.47-4.64-28.64-1.58-3.73-4.34-6.61-6.6-9.83-4.83-6.89-8.3-14.16-8.57-22.8-.19-6.54-4.66-11.16-8.37-15.91-4.12-5.28-8.83-9.82-10.68-16.83-1.54-5.88-6.36-10.33-10.7-14.69-1.72-1.73-3.73-3.3-3.92-5.93,2.12-1.61,4,.4,6.13,0-1.19-3.71-4.15-5.87-6.59-8.42-1.19-1.25-2.62-2.66-1-4.22,1.75-1.71,2.48.71,3.38,1.51,3.28,2.92,5.88,6.68,10.39,8.26,1.7-5.07.11-9.13-3.48-12.16-6.37-5.39-9.41-13.11-14.15-19.63-2-2.8-1.13-7-.07-10.58s2.24-6.84,2.38-10.6c.16-4.57-.73-8.5-4.09-11.7Z" transform="translate(62.48 -84.34)"/>
  <path class="cls-2 reg" d="M540,305c8.64,4.88,12.56,12.36,11.35,21.24-.59,4.42,4.87,13.26,9.4,15.22,1,.45,2.72.68,3,1.45,2.62,6.5,7.26,11.68,11,17.47,3.15,4.94,4.59,10.64,6.06,16.26.24.92.63,2.19.22,2.85-2.86,4.64-1.39,9.73-1.81,14.62-.17,1.93,1,4.21-2,5.49-1.56.68,0,2.35.46,3.43,1.77,4,3.75,7.88,2.73,12.68-.51,2.42-1,3.57-3.59,3.38s-5.2.1-7.8-1.05c-4.43-2-12.55,2.12-13.69,6.86-.41,1.73-1.24,2.59-2.6,2.05-3.34-1.32-4.81,1.25-7.1,3.21-.48-5.35-3.92-7.55-8.13-9.69-6.16-3.14-13.07-1.85-19.34-4.16-2.22-.82-5,.4-6.69,2.4-2.55,3.06-5.25,3.36-9.19,2.72-8.3-1.34-16.78-1.55-25.17-2.4-11.49-1.16-23-2.48-34.46-3.73-6.73-.73-13.45-1.63-20.2-2.12-11.39-.84-22.79-1.56-34.2-2-3.12-.12-3.58-1.44-3.41-4,.73-10.89,1-21.84,2.28-32.67.67-5.48,2.42-12.12.29-16s-9.69-1.65-14.75-1.94c-9.09-.52-18.19-1.56-27.31-1.3-3.49.1-4.65-.91-4.47-4.45,1.06-20.84,1.95-41.69,2.9-62.53,0-.67,0-1.33.05-2,.37-15.93.3-31.88,1.22-47.78.9-15.56,1.06-31.14,1.82-46.69.14-2.89,1.22-3.54,3.69-2.63,6,2.22,12.67,3.61,14.89,11,.6,2,2.36,2.66,4,3.39,1.35.61,3.21.76,4,1.77,3.65,4.54,7.87,3.88,12.89,2.86,3.35-.68,5.54-1.93,7-4.63,3.59-6.83,9.44-12.44,11.1-20.31,1.38-6.6,2.36-13.31,5.37-19.46,1.28-2.6-1.37-4.62-1.1-7.16.58-5.36,1.77-10.63-.63-16.08-1-2.29,1.84-4.76,2.92-7.15.53-1.18,2-2.09,1.68-3.48-1-4.09-.12-7.13,3.71-9.34,1.71-1,.58-2.38-.51-3.19-2.53-1.89-1.95-3.77-.3-5.87a35.62,35.62,0,0,0,7.29-17.14c.39-2.56,1-5.33,3.93-6.45,2-.77,4.52-4.22,4.82-3.45,1.28,3.17,5.48,4.64,4.92,8.8-.31,2.28.14,4.66-.05,7-.43,5.26,5.67,8.56,3.92,14.59-.51,1.78,4,4,4.39,7.72.4,3.54,1.51,6.88.77,10.58-1.35,6.79,1.55,13.07,3.15,19.43.67,2.68,3.25,4.59,6,1.61,1.6-1.74,3.55-2.19,5.62-2.8,1.22-.36,2.2-.21,2.31.94.61,6.22,6.4,8,9.89,11.78.93,1,2.07,1.64,1.84,3.21-.78,5.27,1.54,10.78.64,15.53-1.81,9.59,2.74,16.71,6.63,24.19,2.71,5.21,3.66,10.19,1.61,15.69-.33.89-1.27,2.31-.3,2.7,4.59,1.84,2.42,5.42,2.38,8.39a15.93,15.93,0,0,0,14.32,15.63c3.75.31,5.12,2.08,5.46,5,.35,3.13,1.8,4.28,4.75,4.5a6.52,6.52,0,0,1,6.13,4.82c.53,1.61,1,2.51,3.54,1.67,3.22-1.08,6,2.75,5.37,4.6-1.7,5,1.25,8.54,3,12.08,3.54,7.1,4.49,14.47,4.36,22.13,0,3.12.12,5.55,4.09,5.76C540.19,310.15,538.77,306.82,540,305Z" transform="translate(62.48 -84.34)"/>
  <path class="cls-3 reg" d="M322.32,354.32c-25.05-1.48-50.15-1.62-75.2-.73-15.72.56-31.5-.11-47.18,1.7-3.94.45-4.92-1-5-4.88-.49-24.2-1-48.41-2.09-72.6-.85-19.54-1.33-39.09-2-58.63-.68-19.21-1.56-38.41-2-57.64-.11-4.81,1.13-6.73,6-5.95,1.2.2,3,1.62,3.85-.6.68-1.76-.07-3.13-1.36-4.44-1.46-1.47-3.52-2.58-3.45-5.18.06-1.71-.1-4,1.52-4.44,4.27-1.21,4.58-4.34,5-7.86.16-1.28.18-3.06,3.11-3.21,2.31-.12,5.38-2.78,3.18-6.62-3-5.23,3.33-5.53,4.77-8.46.66-1.35,2.88-2,2.56-4.23a3.43,3.43,0,0,1,.15-1c4.55,1,6.33-5.13,11.46-3.93,8.14,1.92,16.36,1.43,24-2.83a2,2,0,0,0,1.15-2.36c-.55-3-1.51-5.77-4.39-7.36a4,4,0,0,0-1.45-.28c-2.61-.32-5.11-1.31-5.64-4-.24-1.2,2.19-1.45,3.41-2.15,2.7-1.53,4.87-1.6,6.64,1.23,1.5,2.4,2.76,5.06,6.52,3.11,1.07-.55,2,1.08,2.53,2,2.88,4.92,7.21,5.41,12.23,4.39,3.06-.62,4.91,2.41,8.08,2.8,5.49.67,11.64.68,16,5.42a2.46,2.46,0,0,0,3.92-.17c2.27-2.66,4.49-1.61,7-.12s6.12,1.21,7.7,4.57a1.51,1.51,0,0,0,2.55-.06c.7-1,2.16-2,1-3.35-2.39-2.73.4-3.2,1.72-3.6,4.13-1.23,5.94,3,8.9,4.49s-.75,3-1.3,4.62c-1.26,3.66-6.61,4.84-5.72,9.9.23,1.27-1.58,1.64-3,1.86-7.27,1.14-8.46,3.64-6.78,10.66.82,3.48-1.63,6.72-3.8,9.46a41.31,41.31,0,0,0-3.82,5.17c-3.09,5.4-2.8,6.42,2.62,10.18,6.11,4.25,12.47,8.21,16.86,14.49a2.09,2.09,0,0,0,1.63.85c6.2-1.33,10,3.59,14.84,5.67a7.32,7.32,0,0,1,4.66,7.49c-.56,15.56-1.22,31.11-1.83,46.67,0,.5,0,1,0,1.5-.39,16.08-.52,32.19-1.23,48.26-.86,19.54-1.84,39.07-2,58.63a7.75,7.75,0,0,1-.54,2.91c-1.18,2.75,1.6,6.91-2,8.38-2.55,1.05-5.9.2-8.89.2Z" transform="translate(62.48 -84.34)"/>
  <path class="cls-4 reg" d="M334.84,504.16c-1.34,4.2-2.52,8.07-3.82,11.9-1.22,3.59-9.33,6.08-11.95,3.58-.7-.66-1.65-1.85-1.18-3.09a2.51,2.51,0,0,1,2.77-1.69c3.32.36,3.74-1.93,3.95-4.34.57-6.49.32-13.25,6.83-17.49a3.84,3.84,0,0,0,1.24-3.61c-.12-1-.42-2.46.08-2.91,5.36-4.81-.74-8.47-1-12.81-1.26,6.66-6.28,11.2-8.67,17.06-.48,1.15-1,2.08-2.27,2.38-6.76,1.66-10.66,6.48-13.94,12.19a21.19,21.19,0,0,1-5.17,6.58c-2.86,2.19-5.9,1.39-6.9-2.09a125.81,125.81,0,0,1-3-12.37,6.29,6.29,0,0,0-2.08-3.74c-2-1.93-4-3.85-4.74-6.77-.44-1.82-1.81-2.86-3.55-3.81-3.18-1.73-7-3.13-5.11-8.47,1-2.84-8.49-10.42-11.63-9.66a5.9,5.9,0,0,1-4.72-.65c-3.23-1.88-6.43-3.76-10.5-2.09-1.62.66-3.14-.72-4.54-1.54-2.69-1.57-5.29-3.28-8-4.87-3.31-2-6.55-3.65-10.47-.91-1.14.8-3.25.42-4.89.27-6.16-.56-12.18,1.08-18.31,1.09-2.39,0-3.35-.47-3.69-3.18-.38-3-.63-5.88-.73-8.85-.67-20.52-1-41-2.3-61.53-.45-7.29-.26-14.56-.79-21.81-.19-2.62.37-3.77,3.42-3.88,38.53-1.42,77.07-1.22,115.59-.71,16.35.21,32.71,1.51,49.09,2,6.25.19,12.53.86,18.81.75,2.86,0,3.33,1.24,3.16,3.6-1,13.31-1.89,26.63-2.85,39.94-.44,6.09-.39,12.2-.89,18.31-1.23,15.16-1.41,30.39-2.31,45.57-1.12,18.93-2.59,37.84-3.81,56.76-.4,6.26-.33,12.53-.93,18.81-.88,9.21-.85,18.51-1.2,27.77-.06,1.48.28,3.3-1.49,3.86s-4.16,1-5.48-1c-4.65-6.85-10.5-12.65-9.92-22.53.46-7.78-1.61-16.23-9.72-21.07a7.06,7.06,0,0,0-6.55-.41c-1.57.55-3.6,1-4.7-.25-1.36-1.58-.22-3.65.86-5C342.43,516.7,340.93,510.56,334.84,504.16Z" transform="translate(62.48 -84.34)"/>
  <path class="cls-5 reg" d="M514.78,555.58c-8.22,1.25-8.36,1.41-9.47,10.62s-1.41,9.42-9.1,4.37c-2.49-1.64-4.74-3.94-7.46-4.88-7.47-2.59-8.53-8.59-9-15.14-.37-4.74-3.24-7.19-8.09-6.68-10.76,1.13-20.93-1.1-30.84-5-4.82-1.91-7.38-.9-9.06,3.68-2.34-.4-2.92-2.54-3.94-4.13a30,30,0,0,0-8.67-8.74c-3.53-2.38-6.85-5.07-5.46-10.38.6-2.29-5.74-6.28-9.17-5.14-3.1,1-3.74-.15-4.59-2.4-2.84-7.46-5-8.76-13.22-8.15a6.42,6.42,0,0,1-6.73-6.57c1.19-18.83,2.54-37.64,3.75-56.47.5-7.77.93-15.56,1.12-23.34.07-3.07.55-3.66,3.95-3.22,9.51,1.21,19.14,1.54,28.7,2.38q26.18,2.31,52.35,4.84c12.33,1.21,24.64,2.64,37,4a4.21,4.21,0,0,0,4-1.5c3.06-3.58,6.52-4.88,11.42-3.6,3.24.85,6.67.79,10.09,1.8,5.27,1.54,9.19,3.51,11.25,9,1.09,2.91,3.65,1.26,5.09-.41,1.18-1.37,1.8-2.21,3.85-1,2.71,1.63,4.64.53,5.34-2.75A8.34,8.34,0,0,1,569.32,421c2.57,1,4.88,1.78,7.62.66,2.17-.88,3.39-.11,3.33,2.53a20.43,20.43,0,0,1-1.83,8.59c-3.54,7.46-7.22,15-9.63,22.82-1.46,4.77-1.77,9.91-3.7,14.72-3,7.47-8.86,13.19-11.93,20.57-.44,1.06-1.89,1.85-3,2.44-14.56,7.49-21.13,20.89-25.83,35.43-1.65,5.08-5,8.46-8.45,12C510.3,546.35,510.12,549,514.78,555.58Z" transform="translate(62.48 -84.34)"/>
</svg>
