<?xml version="1.0" ?><!DOCTYPE svg  PUBLIC '-//W3C//DTD SVG 1.1//EN'  'http://www.w3.org/Graphics/SVG/1.1/DTD/svg11.dtd'>
<svg height="8.4666mm" style="shape-rendering:geometricPrecision; text-rendering:geometricPrecision; image-rendering:optimizeQuality; fill-rule:evenodd; clip-rule:evenodd" version="1.1" viewBox="0 0 846.66 846.66" width="8.4666mm" xml:space="preserve" xmlns="http://www.w3.org/2000/svg" xmlns:xlink="http://www.w3.org/1999/xlink">
<defs><style type="text/css">
   <![CDATA[
    .fil0 {fill:black;fill-rule:nonzero}
   ]]>
</style>
</defs>
<g id="Layer_x0020_1"><path class="fil0" d="M349.73 148.86l57.11 -75.39c8.41,-11.15 25.14,-10.82 33.22,0.32l57.58 76c2.82,3.73 4.18,8.11 4.17,12.45l0.04 71.52 320.56 95.98c8.98,2.68 14.78,10.9 14.77,19.81l0.03 49c0,11.43 -9.27,20.7 -20.7,20.7l-95.13 0 0 45.15c0,27.23 -41.39,27.23 -41.39,0l0 -45.15 -42.44 0 0 45.15c0,27.23 -41.39,27.23 -41.39,0l0 -45.15 -94.31 0 0 206.72 60.78 125.75c6.67,13.82 -3.58,29.64 -18.6,29.63l-241.4 0.04c-16.05,0 -25.78,-17.43 -17.95,-31.01l60.13 -124.41 0 -206.72 -94.31 0 0 45.15c0,27.23 -41.39,27.23 -41.39,0l0 -45.15 -42.43 0 0 45.15c0,27.23 -41.4,27.23 -41.4,0l0 -45.15 -95.13 0c-11.43,0 -20.7,-9.27 -20.7,-20.7l0.03 -49c-0.01,-8.91 5.79,-17.13 14.77,-19.81l320.56 -95.98 0 -71.52c0,-5.1 1.85,-9.77 4.92,-13.38zm36.48 353.83l74.24 0c0,-111.19 0,-222.37 0,-333.55l-37.12 -49 -37.12 49c0,111.18 0,222.36 0,333.55zm74.24 41.39l-74.24 0 -0.05 86.52c0,3.01 -0.66,6.07 -2.06,8.97l-48.54 100.43 175.54 0 -47.9 -99.09c-1.75,-3.04 -2.75,-6.56 -2.75,-10.31l0 -86.52zm41.4 -267.17l0 100.94c97.99,0 195.98,0 293.96,0l0 -12.92 -293.96 -88.02zm-157.04 100.94l0 -100.94 -293.96 88.02 0 12.92c97.98,0 195.97,0 293.96,0z"/></g></svg>